<?xml version="1.0" encoding="utf-8"?>
<!-- Generator: Adobe Illustrator 24.3.0, SVG Export Plug-In . SVG Version: 6.00 Build 0)  -->
<svg version="1.1" id="Layer_1" xmlns="http://www.w3.org/2000/svg" xmlns:xlink="http://www.w3.org/1999/xlink" x="0px" y="0px"
	 viewBox="0 0 512 512" style="enable-background:new 0 0 512 512;" xml:space="preserve">
<style type="text/css">
	.st0{fill:url(#SVGID_1_);}
	.st1{fill:url(#SVGID_2_);}
	.st2{fill:#A7A9AC;}
	.st3{fill:url(#SVGID_3_);}
	.st4{fill:url(#SVGID_4_);}
	.st5{fill:url(#SVGID_5_);}
	.st6{fill:url(#SVGID_6_);}
	.st7{fill:url(#SVGID_7_);}
	.st8{fill:none;}
	.st9{opacity:0.6;fill:url(#SVGID_8_);}
	.st10{opacity:0.6;fill:url(#SVGID_9_);}
	.st11{fill:url(#SVGID_10_);}
	.st12{fill:url(#SVGID_11_);}
	.st13{fill:url(#SVGID_12_);}
	.st14{fill:url(#SVGID_13_);}
</style>
<g>
	<linearGradient id="SVGID_1_" gradientUnits="userSpaceOnUse" x1="-22.0514" y1="469.3746" x2="190.2606" y2="366.5213">
		<stop  offset="0" style="stop-color:#F77CFE"/>
		<stop  offset="1" style="stop-color:#4902A6"/>
	</linearGradient>
	<path class="st0" d="M86.76,433.52c0,19.21-15.57,34.79-34.79,34.79c-19.21,0-34.79-15.57-34.79-34.79
		c0-19.21,15.57-34.79,34.79-34.79C71.18,398.73,86.76,414.3,86.76,433.52z"/>
	<linearGradient id="SVGID_2_" gradientUnits="userSpaceOnUse" x1="49.3063" y1="429.2489" x2="79.7196" y2="463.0675">
		<stop  offset="0" style="stop-color:#F1F2F2"/>
		<stop  offset="1" style="stop-color:#F1F2F2;stop-opacity:0"/>
	</linearGradient>
	<path class="st1" d="M76.98,415.21c0.8,3.01,1.23,6.16,1.23,9.41c0,20.16-16.4,36.56-36.55,36.56c-1.41,0-2.79-0.09-4.16-0.24
		c4.32,2.29,9.25,3.6,14.47,3.6c17.1,0,31.01-13.91,31.01-31.01C82.98,426.67,80.75,420.34,76.98,415.21z"/>
	<path class="st2" d="M288.26,156.45c-14.31-21.14-72.16,16.25-90.81,68.63c-8.39,23.52-8.97,51.65-1.22,78.94
		c-11.65,9.36-24.45,18.74-38.42,28.01c-10.51,6.96-19.44,13.57-26.95,19.8c-10.8-21.32-18.12-44.7-21.17-69.41
		C126.55,129.79,264.02,116.39,288.26,156.45z"/>
	<linearGradient id="SVGID_3_" gradientUnits="userSpaceOnUse" x1="55.4387" y1="43.6157" x2="250.7672" y2="291.7867">
		<stop  offset="0" style="stop-color:#231F20"/>
		<stop  offset="1" style="stop-color:#231F20;stop-opacity:0"/>
	</linearGradient>
	<path class="st3" d="M288.26,156.45c-24.24-40.06-161.71-26.66-178.58,125.96c0.71,5.75,1.66,11.42,2.82,17.01
		c14.88-21.6,38.95-95.53,101.46-105.43C238.83,159.4,277,139.83,288.26,156.45z"/>
	<linearGradient id="SVGID_4_" gradientUnits="userSpaceOnUse" x1="372.6024" y1="244.841" x2="107.4516" y2="180.6761">
		<stop  offset="0" style="stop-color:#231F20"/>
		<stop  offset="1" style="stop-color:#231F20;stop-opacity:0"/>
	</linearGradient>
	<path class="st4" d="M191.51,279.58l0.01-0.01c-1.99-19.18,0.03-37.98,5.92-54.5c18.65-52.38,76.5-89.77,90.81-68.63
		c-19.65-32.48-113.69-29.81-157.6,53.65C161.32,219.29,183.1,265.82,191.51,279.58z"/>
	<path class="st2" d="M199.8,430.78c-9.89-6.83-19.17-14.48-27.74-22.85c20.39-9.98,42.02-23.06,63.63-38.18
		c10.35,9.94,22.54,18.71,36.62,25.82c28.31,13.84,86.18,0,85.55-39C359.74,401.22,309.41,457.37,199.8,430.78z"/>
	<linearGradient id="SVGID_5_" gradientUnits="userSpaceOnUse" x1="497.2678" y1="230.2528" x2="222.6927" y2="545.8727">
		<stop  offset="0" style="stop-color:#F77CFE"/>
		<stop  offset="1" style="stop-color:#4902A6"/>
	</linearGradient>
	<path class="st5" d="M451.82,422.71c-0.02,0.01-0.04,0.03-0.06,0.05c-36.15,28.52-81.79,45.55-131.41,45.55
		c-44.77,0-86.3-13.86-120.55-37.53c109.62,26.59,159.94-29.55,158.05-74.21c-0.62-39.01,16.98-64.54,61.65-62.91
		C471.06,295.54,513.55,366.23,451.82,422.71z"/>
	<linearGradient id="SVGID_6_" gradientUnits="userSpaceOnUse" x1="96.6049" y1="233.2242" x2="409.6524" y2="233.2242">
		<stop  offset="0" style="stop-color:#F77CFE"/>
		<stop  offset="1" style="stop-color:#4902A6"/>
	</linearGradient>
	<path class="st6" d="M320.34,43.7c-117.24,0-212.29,95.05-212.29,212.3c0,8.95,0.56,17.76,1.63,26.41
		c16.86-152.62,154.34-166.03,178.58-125.96c0.04,0.03,0.06,0.07,0.08,0.1c0.61,0.92,1.14,1.95,1.59,3.1
		c9.26,23.97-18.29,83.81-93.69,144.36c-11.65,9.36-24.45,18.74-38.42,28.01c-10.51,6.96-19.44,13.57-26.95,19.8
		c-67.07,55.56-21.17,80.9,15.31,67.33c8.32-3.09,16.98-6.87,25.88-11.23c20.39-9.98,42.02-23.06,63.63-38.18
		c55.8-39.05,111.5-91.76,145.45-140.26C433.97,154,413.21,43.7,320.34,43.7z"/>
	<linearGradient id="SVGID_7_" gradientUnits="userSpaceOnUse" x1="451.0533" y1="245.1592" x2="164.1991" y2="230.0615">
		<stop  offset="0" style="stop-color:#F1F2F2"/>
		<stop  offset="1" style="stop-color:#F1F2F2;stop-opacity:0"/>
	</linearGradient>
	<path class="st7" d="M390.95,91.91c-9.66-18.55-29.75-40.66-70.6-40.66c-54.69,0-106.1,21.3-144.77,59.97
		c-7.84,7.84-14.95,16.2-21.33,25.01c0.9-0.97,1.8-1.94,2.71-2.89c22.89-23.74,52.03-41.73,86.62-53.49
		c13.14-4.47,25.97-6.73,38.12-6.73c28.59,0,52.62,12.74,65.93,34.96c16.1,26.87,14.48,62.55-4.43,97.9
		c-27.88,52.11-83.09,102.6-113.51,128.06c-42.15,35.27-88.06,65.86-114.23,76.12c-1.55,0.61-3.02,1.12-4.43,1.55
		c3.93,2.22,9.31,3.5,15.46,3.5l0,0c5.66,0,11.56-1.08,17.05-3.13c7.93-2.95,16.41-6.63,25.2-10.93
		c19.67-9.63,40.73-22.27,62.62-37.58c57.32-40.11,111-91.85,143.59-138.4c14.51-20.73,23.62-44.67,26.33-69.24
		C403.87,132.42,400.21,109.69,390.95,91.91z"/>
	<path class="st8" d="M246.91,89.67c-144.7,49.2-137.22,192.74-137.22,192.74c16.86-152.62,154.34-166.03,178.58-125.96
		c0.04,0.03,0.06,0.07,0.08,0.1c0.61,0.92,1.14,1.95,1.59,3.1c9.26,23.97-18.29,83.81-93.69,144.36
		c-11.65,9.36-24.45,18.74-38.42,28.01c-10.51,6.96-19.44,13.57-26.95,19.8c-21.56,17.86-31.44,32.59-33.71,43.92l-0.52,4.74v0
		c0,0.02,0.71,5.62,15.04,0c46.22-18.13,176.6-113.86,222.37-199.42C373.57,127.17,325.54,62.94,246.91,89.67z"/>
	<linearGradient id="SVGID_8_" gradientUnits="userSpaceOnUse" x1="165.8622" y1="339.4063" x2="245.271" y2="438.7469">
		<stop  offset="0" style="stop-color:#231F20"/>
		<stop  offset="1" style="stop-color:#231F20;stop-opacity:0"/>
	</linearGradient>
	<path class="st9" d="M172.06,407.92c2.55,2.49,5.17,4.91,7.85,7.28c16.32-6.29,57.88-23.04,65.75-36.71l-0.02-0.04
		c-3.48-2.79-6.82-5.68-9.96-8.7C214.07,384.86,192.45,397.94,172.06,407.92z"/>
	<linearGradient id="SVGID_9_" gradientUnits="userSpaceOnUse" x1="204.2096" y1="382.6008" x2="128.2435" y2="268.8877">
		<stop  offset="0" style="stop-color:#231F20"/>
		<stop  offset="1" style="stop-color:#231F20;stop-opacity:0"/>
	</linearGradient>
	<path class="st10" d="M130.86,351.82c7.51-6.23,16.44-12.83,26.95-19.8c13.97-9.27,26.77-18.65,38.42-28.01
		c-1.72-6.06-3.01-12.17-3.92-18.25c-16.66,12.64-52.31,35.91-69.85,47.24C124.96,339.44,127.76,345.72,130.86,351.82z"/>
	<linearGradient id="SVGID_10_" gradientUnits="userSpaceOnUse" x1="365.0007" y1="580.1133" x2="238.5592" y2="307.4145">
		<stop  offset="0" style="stop-color:#231F20"/>
		<stop  offset="1" style="stop-color:#231F20;stop-opacity:0"/>
	</linearGradient>
	<path class="st11" d="M198.99,430.2c0.27,0.19,0.54,0.38,0.81,0.57c109.62,26.59,159.94-29.55,158.05-74.21
		c0.63,39-57.24,52.84-85.55,39C277.1,402.06,253.25,440.72,198.99,430.2z"/>
	<linearGradient id="SVGID_11_" gradientUnits="userSpaceOnUse" x1="487.4586" y1="211.9195" x2="296.3884" y2="524.7084">
		<stop  offset="0" style="stop-color:#F1F2F2"/>
		<stop  offset="1" style="stop-color:#F1F2F2;stop-opacity:0"/>
	</linearGradient>
	<path class="st12" d="M434.82,377.38c16.75-17.37,24.86-36.97,24.09-58.28l-0.11-2.95c-10.63-10.64-24.68-17.24-39.47-17.79
		c-1.29-0.05-2.57-0.07-3.81-0.07c-17.18,0-30.33,4.51-39.08,13.41c-9.51,9.67-14.18,24.71-13.87,44.72
		c0.78,18.89-7.11,38.42-21.66,53.6c-4.49,4.69-10.27,9.66-17.55,14.27C355.48,424.27,405.45,407.83,434.82,377.38z"/>
	<linearGradient id="SVGID_12_" gradientUnits="userSpaceOnUse" x1="509.0332" y1="620.812" x2="312.3" y2="344.8189">
		<stop  offset="0" style="stop-color:#231F20"/>
		<stop  offset="1" style="stop-color:#231F20;stop-opacity:0"/>
	</linearGradient>
	<path class="st13" d="M301.68,429.62c-25.16,9.29-58.98,11.56-101.89,1.15c34.24,23.67,75.78,37.53,120.55,37.53
		c49.62,0,95.27-17.02,131.41-45.55c0.02-0.02,0.04-0.04,0.06-0.05c39.4-36.04,36.35-77.87,15.59-103.91l0,0
		C470.49,404.65,342.86,444.85,301.68,429.62z"/>
	<linearGradient id="SVGID_13_" gradientUnits="userSpaceOnUse" x1="7.9531" y1="404.0871" x2="64.9069" y2="440.6439">
		<stop  offset="0.2159" style="stop-color:#F77CFE"/>
		<stop  offset="0.7295" style="stop-color:#4902A6"/>
	</linearGradient>
	<path class="st14" d="M17.18,433.52c0,8.06,2.75,15.48,7.36,21.38c-9.76-14.78,10.96-60.75,50.83-47.12
		c-6.18-5.62-14.39-9.05-23.4-9.05C32.76,398.73,17.18,414.3,17.18,433.52z"/>
</g>
</svg>
